<svg width="30" height="51" viewBox="0 0 42 51" fill="none" xmlns="http://www.w3.org/2000/svg"><path d="M7.37428 35.9505L4.67044 33.2467C4.48697 33.0642 4.36031 32.8325 4.30577 32.5796C3.07434 33.2781 2.05016 34.2907 1.33767 35.5141C0.625187 36.7376 0.249874 38.128 0.25 39.5438V44.4712C0.251387 44.9426 0.439246 45.3942 0.772544 45.7275C1.10584 46.0608 1.55749 46.2487 2.02885 46.2501H8.25481L8.97525 36.164C8.72193 36.309 8.42797 36.3666 8.13866 36.328C7.84935 36.2895 7.58076 36.1568 7.37428 35.9505ZM19.3104 32.5885C19.2647 32.8401 19.1401 33.0707 18.9546 33.2467L16.2507 35.9505C16.0449 36.1579 15.7762 36.2912 15.4866 36.3299C15.197 36.3685 14.9028 36.3102 14.6498 36.164L15.3702 46.2501H21.5873C22.0586 46.2487 22.5103 46.0608 22.8436 45.7275C23.1769 45.3942 23.3647 44.9426 23.3661 44.4712V39.5438C23.3662 38.1292 22.9907 36.74 22.2782 35.518C21.5656 34.2961 20.5415 33.2851 19.3104 32.5885ZM19.1159 22.6429V20.7938C19.9921 20.1161 20.6482 19.1944 21.0017 18.1447C21.3552 17.095 21.3904 15.9642 21.1027 14.8945C20.815 13.8249 20.2173 12.8643 19.3849 12.1336C18.5525 11.4028 17.5225 10.9347 16.4247 10.788C13.4255 10.4672 12.3733 13.7135 9.06509 13.3397C6.85445 13.0899 6.23554 11.5172 4.38118 11.9507C1.56845 12.5431 0.396301 16.5852 2.22077 18.6616C1.7798 19.6315 1.73214 20.7346 2.08779 21.7389C2.44345 22.7432 3.17471 23.5704 4.12778 24.0466C5.98772 33.3492 18.8782 32.1747 19.1159 22.6429ZM5.7855 22.643C5.39773 22.6232 5.02142 22.5048 4.69218 22.299C4.36295 22.0932 4.09167 21.8068 3.90403 21.4669C3.71639 21.127 3.61859 20.7448 3.6199 20.3566C3.6212 19.9683 3.72156 19.5868 3.91148 19.2481C10.3936 15.1722 11.6296 24.1294 17.3373 21.9274C17.8894 30.3099 6.1189 31.1754 5.7855 22.643Z" fill="white"></path><path d="M12.2662 33.5783L15.0652 35.3828C15.1507 35.4378 15.2524 35.462 15.3534 35.4512C15.4545 35.4404 15.5488 35.3953 15.6206 35.3234L18.3223 32.6218C18.3798 32.5643 18.4204 32.4922 18.4398 32.4133C18.4591 32.3344 18.4565 32.2516 18.4322 32.1741C18.4078 32.0966 18.3627 32.0272 18.3017 31.9735C18.2407 31.9198 18.1662 31.8838 18.0862 31.8695L14.1813 31.171C14.1107 31.1584 14.0382 31.163 13.9698 31.1845C13.9014 31.2059 13.8392 31.2436 13.7885 31.2943L12.1927 32.8901C12.1458 32.937 12.11 32.9939 12.0879 33.0564C12.0658 33.119 12.058 33.1858 12.065 33.2518C12.0721 33.3177 12.0938 33.3813 12.1286 33.4378C12.1634 33.4943 12.2104 33.5423 12.2662 33.5783Z" fill="white"></path><path d="M11.8027 34.3359L9.90375 35.5651L9.14062 46.248H14.4772L13.714 35.5678L11.8027 34.3359Z" fill="white"></path><path d="M9.42337 31.1708L5.5303 31.869C5.45033 31.8834 5.37581 31.9193 5.31484 31.973C5.25387 32.0267 5.20877 32.0961 5.18445 32.1736C5.16013 32.2511 5.15752 32.3339 5.17688 32.4128C5.19625 32.4917 5.23687 32.5638 5.29432 32.6212L7.99592 35.3228C8.06786 35.3947 8.1623 35.4398 8.26349 35.4506C8.36468 35.4613 8.46649 35.437 8.55192 35.3817L11.3397 33.5783C11.3954 33.5423 11.4423 33.4942 11.4771 33.4377C11.5118 33.3812 11.5334 33.3177 11.5404 33.2518C11.5474 33.1858 11.5396 33.1191 11.5175 33.0566C11.4954 32.9941 11.4595 32.9373 11.4127 32.8904L9.81636 31.2941C9.76565 31.2434 9.70342 31.2057 9.63499 31.1842C9.56657 31.1628 9.49396 31.1582 9.42337 31.1708ZM50.053 0H7.36066C6.88888 0 6.43643 0.187414 6.10283 0.521012C5.76923 0.854611 5.58182 1.30707 5.58182 1.77885V3.55769C5.58182 4.02947 5.76923 4.48193 6.10283 4.81553C6.43643 5.14913 6.88888 5.33654 7.36066 5.33654V4.44712C7.3612 3.9755 7.54879 3.52336 7.88227 3.18988C8.21575 2.8564 8.6679 2.66881 9.13951 2.66827H48.2742C48.7458 2.66881 49.1979 2.8564 49.5314 3.18988C49.8649 3.52336 50.0525 3.9755 50.053 4.44712V5.33654C50.5248 5.33654 50.9772 5.14913 51.3108 4.81553C51.6444 4.48193 51.8318 4.02947 51.8318 3.55769V1.77885C51.8318 1.30707 51.6444 0.854611 51.3108 0.521012C50.9772 0.187414 50.5248 0 50.053 0Z" fill="white"></path><path d="M48.2819 3.55469H9.14724C8.91156 3.55539 8.68574 3.64932 8.5191 3.81597C8.35245 3.98262 8.25852 4.20844 8.25781 4.44411V12.2266C11.3468 13.4899 12.9005 9.80801 16.0136 9.86952C17.2986 9.93293 18.5356 10.3773 19.5673 11.146C20.5989 11.9147 21.3785 12.973 21.8067 14.1862C22.235 15.3994 22.2925 16.7126 21.972 17.9586C21.6515 19.2046 20.9675 20.327 20.0071 21.1831C20.3437 25.2514 18.5424 29.0361 14.9463 30.6465C16.4943 30.581 18.0328 30.9188 19.4111 31.6266C20.7894 32.3345 21.9602 33.3882 22.8088 34.6845H27.8251V37.5162C27.2332 37.7259 26.7344 38.1382 26.4169 38.68C26.0994 39.2219 25.9836 39.8586 26.0901 40.4775C26.1965 41.0965 26.5182 41.6579 26.9985 42.0626C27.4787 42.4673 28.0865 42.6893 28.7146 42.6893C29.3426 42.6893 29.9504 42.4673 30.4307 42.0626C30.9109 41.6579 31.2326 41.0965 31.3391 40.4775C31.4455 39.8586 31.3297 39.2219 31.0122 38.68C30.6947 38.1382 30.1959 37.7259 29.604 37.5162V34.6845H48.2819C48.5176 34.6838 48.7434 34.5899 48.91 34.4232C49.0767 34.2566 49.1706 34.0308 49.1713 33.7951V4.44411C49.1706 4.20844 49.0767 3.98262 48.91 3.81597C48.7434 3.64932 48.5176 3.55539 48.2819 3.55469ZM25.1569 11.5595H42.9453C43.1788 11.5631 43.4016 11.6584 43.5654 11.8248C43.7293 11.9912 43.8211 12.2154 43.8211 12.4489C43.8211 12.6825 43.7293 12.9066 43.5654 13.073C43.4016 13.2394 43.1788 13.3347 42.9453 13.3383H25.1569C24.9234 13.3347 24.7006 13.2394 24.5368 13.073C24.373 12.9066 24.2811 12.6824 24.2811 12.4489C24.2811 12.2154 24.373 11.9912 24.5368 11.8248C24.7007 11.6584 24.9234 11.5631 25.1569 11.5595ZM25.1569 17.7855C24.9234 17.7818 24.7006 17.6865 24.5368 17.5201C24.373 17.3537 24.2811 17.1295 24.2811 16.896C24.2811 16.6625 24.373 16.4383 24.5368 16.2719C24.7007 16.1055 24.9234 16.0102 25.1569 16.0066H42.9453C43.1788 16.0102 43.4016 16.1055 43.5654 16.2719C43.7293 16.4383 43.8211 16.6625 43.8211 16.896C43.8211 17.1296 43.7293 17.3537 43.5654 17.5201C43.4016 17.6866 43.1788 17.7818 42.9453 17.7855H25.1569ZM42.9453 26.6797H30.4934C30.2598 26.6762 30.0369 26.581 29.873 26.4146C29.709 26.2481 29.6171 26.0239 29.6171 25.7903C29.6171 25.5566 29.709 25.3324 29.873 25.166C30.037 24.9995 30.2599 24.9043 30.4935 24.9009H42.9453C43.1788 24.9045 43.4016 24.9998 43.5654 25.1662C43.7293 25.3326 43.8211 25.5567 43.8211 25.7903C43.8211 26.0238 43.7293 26.248 43.5654 26.4144C43.4016 26.5808 43.1788 26.6761 42.9453 26.6797ZM42.9453 22.2326H30.4934C30.2598 22.2291 30.0369 22.1339 29.873 21.9674C29.709 21.801 29.6171 21.5768 29.6171 21.3431C29.6171 21.1095 29.709 20.8853 29.873 20.7188C30.037 20.5524 30.2599 20.4572 30.4935 20.4537H42.9453C43.1788 20.4574 43.4016 20.5527 43.5654 20.7191C43.7293 20.8855 43.8211 21.1096 43.8211 21.3432C43.8211 21.5767 43.7293 21.8009 43.5654 21.9673C43.4016 22.1337 43.1788 22.229 42.9453 22.2326Z" fill="white"></path></svg>