<svg width="48" height="48" viewBox="0 0 48 48" fill="none" xmlns="http://www.w3.org/2000/svg">
<path d="M42.75 37.1781H5.25C4.45435 37.1781 3.69129 36.8621 3.12868 36.2994C2.56607 35.7368 2.25 34.9738 2.25 34.1781V10.3281C2.25 9.53248 2.56607 8.76941 3.12868 8.2068C3.69129 7.6442 4.45435 7.32813 5.25 7.32812H42.75C43.5457 7.32813 44.3087 7.6442 44.8713 8.2068C45.4339 8.76941 45.75 9.53248 45.75 10.3281V27.9831C45.75 28.182 45.671 28.3728 45.5303 28.5135C45.3897 28.6541 45.1989 28.7331 45 28.7331C44.8011 28.7331 44.6103 28.6541 44.4697 28.5135C44.329 28.3728 44.25 28.182 44.25 27.9831V10.3281C44.25 9.9303 44.092 9.54877 43.8107 9.26746C43.5294 8.98616 43.1478 8.82812 42.75 8.82812H5.25C4.85218 8.82812 4.47064 8.98616 4.18934 9.26746C3.90804 9.54877 3.75 9.9303 3.75 10.3281V34.1781C3.75 34.5759 3.90804 34.9575 4.18934 35.2388C4.47064 35.5201 4.85218 35.6781 5.25 35.6781H42.75C43.1478 35.6781 43.5294 35.5201 43.8107 35.2388C44.092 34.9575 44.25 34.5759 44.25 34.1781V31.5006C44.25 31.3017 44.329 31.1109 44.4697 30.9703C44.6103 30.8296 44.8011 30.7506 45 30.7506C45.1989 30.7506 45.3897 30.8296 45.5303 30.9703C45.671 31.1109 45.75 31.3017 45.75 31.5006V34.1781C45.75 34.9738 45.4339 35.7368 44.8713 36.2994C44.3087 36.8621 43.5457 37.1781 42.75 37.1781Z" fill="#42B8A0"/>
<path d="M35.75 23.2656L38.3075 27.5106L40.6925 23.6331L35.75 23.2656Z" fill="#F7901F"/>
<path d="M41.46 27.525C41.3228 27.5263 41.188 27.49 41.07 27.42L39.1125 26.25C38.9703 26.138 38.8735 25.9783 38.8398 25.8004C38.8061 25.6226 38.8379 25.4386 38.9293 25.2823C39.0206 25.126 39.1654 25.0081 39.337 24.9502C39.5085 24.8924 39.6951 24.8985 39.8625 24.9675L41.8275 26.175C41.912 26.2265 41.9854 26.2942 42.0436 26.3741C42.1018 26.4541 42.1436 26.5448 42.1666 26.641C42.1896 26.7372 42.1934 26.837 42.1776 26.9347C42.1619 27.0323 42.127 27.1259 42.075 27.21C42.0053 27.308 41.913 27.3877 41.8059 27.4425C41.6989 27.4974 41.5803 27.5256 41.46 27.525ZM18.75 24.75H14.25C14.0511 24.75 13.8603 24.671 13.7197 24.5303C13.579 24.3897 13.5 24.1989 13.5 24V16.5C13.5 16.3011 13.579 16.1103 13.7197 15.9697C13.8603 15.829 14.0511 15.75 14.25 15.75H18.75C18.9489 15.75 19.1397 15.829 19.2803 15.9697C19.421 16.1103 19.5 16.3011 19.5 16.5C19.5 16.6989 19.421 16.8897 19.2803 17.0303C19.1397 17.171 18.9489 17.25 18.75 17.25H15V23.25H18.75C18.9489 23.25 19.1397 23.329 19.2803 23.4697C19.421 23.6103 19.5 23.8011 19.5 24C19.5 24.1989 19.421 24.3897 19.2803 24.5303C19.1397 24.671 18.9489 24.75 18.75 24.75Z" fill="#F7901F"/>
<path d="M16.5 21H14.25C14.0511 21 13.8603 20.921 13.7197 20.7803C13.579 20.6397 13.5 20.4489 13.5 20.25C13.5 20.0511 13.579 19.8603 13.7197 19.7197C13.8603 19.579 14.0511 19.5 14.25 19.5H16.5C16.6989 19.5 16.8897 19.579 17.0303 19.7197C17.171 19.8603 17.25 20.0511 17.25 20.25C17.25 20.4489 17.171 20.6397 17.0303 20.7803C16.8897 20.921 16.6989 21 16.5 21ZM24.75 24.75H21.75C21.5511 24.75 21.3603 24.671 21.2197 24.5303C21.079 24.3897 21 24.1989 21 24V16.5C21 16.3011 21.079 16.1103 21.2197 15.9697C21.3603 15.829 21.5511 15.75 21.75 15.75H24.75C25.3467 15.75 25.919 15.9871 26.341 16.409C26.7629 16.831 27 17.4033 27 18V22.5C27 23.0967 26.7629 23.669 26.341 24.091C25.919 24.5129 25.3467 24.75 24.75 24.75ZM22.5 23.25H24.75C24.9489 23.25 25.1397 23.171 25.2803 23.0303C25.421 22.8897 25.5 22.6989 25.5 22.5V18C25.5 17.8011 25.421 17.6103 25.2803 17.4697C25.1397 17.329 24.9489 17.25 24.75 17.25H22.5V23.25ZM32.25 24.75H30.75C30.1533 24.75 29.581 24.5129 29.159 24.091C28.7371 23.669 28.5 23.0967 28.5 22.5V16.5C28.5 16.3011 28.579 16.1103 28.7197 15.9697C28.8603 15.829 29.0511 15.75 29.25 15.75C29.4489 15.75 29.6397 15.829 29.7803 15.9697C29.921 16.1103 30 16.3011 30 16.5V22.5C30 22.6989 30.079 22.8897 30.2197 23.0303C30.3603 23.171 30.5511 23.25 30.75 23.25H32.25C32.4489 23.25 32.6397 23.171 32.7803 23.0303C32.921 22.8897 33 22.6989 33 22.5V16.5C33 16.3011 33.079 16.1103 33.2197 15.9697C33.3603 15.829 33.5511 15.75 33.75 15.75C33.9489 15.75 34.1397 15.829 34.2803 15.9697C34.421 16.1103 34.5 16.3011 34.5 16.5V22.5C34.5 23.0967 34.2629 23.669 33.841 24.091C33.419 24.5129 32.8467 24.75 32.25 24.75ZM45 32.25H6.75C6.55109 32.25 6.36032 32.171 6.21967 32.0303C6.07902 31.8897 6 31.6989 6 31.5C6 31.3011 6.07902 31.1103 6.21967 30.9697C6.36032 30.829 6.55109 30.75 6.75 30.75H45C45.1989 30.75 45.3897 30.829 45.5303 30.9697C45.671 31.1103 45.75 31.3011 45.75 31.5C45.75 31.6989 45.671 31.8897 45.5303 32.0303C45.3897 32.171 45.1989 32.25 45 32.25ZM31.5 42.75H16.5C16.3011 42.75 16.1103 42.671 15.9697 42.5303C15.829 42.3897 15.75 42.1989 15.75 42C15.75 41.8011 15.829 41.6103 15.9697 41.4697C16.1103 41.329 16.3011 41.25 16.5 41.25H31.5C31.6989 41.25 31.8897 41.329 32.0303 41.4697C32.171 41.6103 32.25 41.8011 32.25 42C32.25 42.1989 32.171 42.3897 32.0303 42.5303C31.8897 42.671 31.6989 42.75 31.5 42.75ZM25.5 34.71H22.5C22.3011 34.71 22.1103 34.631 21.9697 34.4903C21.829 34.3497 21.75 34.1589 21.75 33.96C21.75 33.7611 21.829 33.5703 21.9697 33.4297C22.1103 33.289 22.3011 33.21 22.5 33.21H25.5C25.6989 33.21 25.8897 33.289 26.0303 33.4297C26.171 33.5703 26.25 33.7611 26.25 33.96C26.25 34.1589 26.171 34.3497 26.0303 34.4903C25.8897 34.631 25.6989 34.71 25.5 34.71Z" fill="#F7901F"/>
<path d="M18.7498 42.7497C18.6152 42.7496 18.4831 42.7134 18.3673 42.6447C18.1963 42.5432 18.0726 42.378 18.0233 42.1853C17.9741 41.9926 18.0034 41.7883 18.1048 41.6172C18.8906 39.9777 19.3054 38.1852 19.3198 36.3672C19.3198 36.1683 19.3989 35.9775 19.5395 35.8369C19.6802 35.6962 19.8709 35.6172 20.0698 35.6172C20.2688 35.6172 20.4595 35.6962 20.6002 35.8369C20.7408 35.9775 20.8198 36.1683 20.8198 36.3672C20.8056 38.4253 20.318 40.4526 19.3948 42.2922C19.3406 42.421 19.2515 42.532 19.1375 42.6128C19.0236 42.6937 18.8893 42.7411 18.7498 42.7497ZM29.2498 42.7497C29.1197 42.7497 28.9918 42.7158 28.8787 42.6513C28.7656 42.5869 28.6712 42.4941 28.6048 42.3822C27.6817 40.5426 27.1941 38.5153 27.1798 36.4572C27.1798 36.2583 27.2589 36.0675 27.3995 35.9269C27.5402 35.7862 27.7309 35.7072 27.9298 35.7072C28.1288 35.7072 28.3195 35.7862 28.4602 35.9269C28.6008 36.0675 28.6798 36.2583 28.6798 36.4572C28.6926 38.2754 29.1075 40.0683 29.8948 41.7072C29.9963 41.8783 30.0256 42.0826 29.9764 42.2753C29.9271 42.468 29.8034 42.6332 29.6323 42.7347C29.508 42.7708 29.3767 42.7759 29.2498 42.7497Z" fill="#42B8A0"/>
</svg>
