<svg xmlns="http://www.w3.org/2000/svg" xmlns:xlink="http://www.w3.org/1999/xlink" width="500" zoomAndPan="magnify" viewBox="0 0 375 374.999991" height="500" preserveAspectRatio="xMidYMid meet" version="1.0"><defs><clipPath id="3a6c15176c"><path d="M 7.246094 7.246094 L 367.996094 7.246094 L 367.996094 367.996094 L 7.246094 367.996094 Z M 7.246094 7.246094 " clip-rule="nonzero"/></clipPath><clipPath id="b073d719c3"><path d="M 7.246094 7.246094 L 289 7.246094 L 289 290 L 7.246094 290 Z M 7.246094 7.246094 " clip-rule="nonzero"/></clipPath></defs><g clip-path="url(#3a6c15176c)"><path fill="#dd4247" d="M 187.65625 7.316406 C 88.058594 7.316406 7.316406 88.054688 7.316406 187.65625 C 7.316406 287.257812 88.058594 367.996094 187.65625 367.996094 C 287.25 367.996094 367.996094 287.25 367.996094 187.65625 C 367.996094 88.058594 287.25 7.316406 187.65625 7.316406 Z M 187.65625 7.316406 " fill-opacity="1" fill-rule="nonzero"/></g><g clip-path="url(#b073d719c3)"><path fill="#e55353" d="M 92.246094 289.675781 C 200.46875 289.675781 288.203125 201.941406 288.203125 93.722656 C 288.210938 83.171875 287.371094 72.6875 285.683594 62.273438 C 283.996094 51.855469 281.480469 41.644531 278.140625 31.632812 C 271.304688 27.65625 264.230469 24.148438 256.929688 21.109375 C 249.625 18.066406 242.152344 15.519531 234.511719 13.464844 C 226.875 11.414062 219.132812 9.871094 211.289062 8.84375 C 203.445312 7.8125 195.566406 7.304688 187.65625 7.316406 C 88.058594 7.316406 7.316406 88.058594 7.316406 187.65625 C 7.304688 195.804688 7.84375 203.914062 8.9375 211.988281 C 10.027344 220.0625 11.664062 228.027344 13.839844 235.878906 C 16.015625 243.730469 18.714844 251.398438 21.9375 258.882812 C 25.15625 266.367188 28.871094 273.601562 33.078125 280.578125 C 52.332031 286.660156 72.054688 289.691406 92.246094 289.675781 Z M 92.246094 289.675781 " fill-opacity="1" fill-rule="nonzero"/></g><path fill="#ffffff" d="M 262.09375 262.09375 C 261.632812 262.558594 261.148438 262.996094 260.640625 263.410156 C 260.136719 263.824219 259.609375 264.214844 259.066406 264.578125 C 258.523438 264.941406 257.960938 265.277344 257.386719 265.585938 C 256.808594 265.894531 256.21875 266.171875 255.613281 266.425781 C 255.007812 266.675781 254.390625 266.894531 253.765625 267.085938 C 253.140625 267.273438 252.507812 267.433594 251.863281 267.5625 C 251.222656 267.6875 250.578125 267.785156 249.925781 267.847656 C 249.273438 267.914062 248.621094 267.945312 247.96875 267.945312 C 247.3125 267.945312 246.660156 267.914062 246.007812 267.847656 C 245.359375 267.785156 244.710938 267.6875 244.070312 267.5625 C 243.425781 267.433594 242.792969 267.273438 242.167969 267.085938 C 241.542969 266.894531 240.925781 266.675781 240.320312 266.425781 C 239.71875 266.171875 239.125 265.894531 238.550781 265.585938 C 237.972656 265.277344 237.410156 264.941406 236.867188 264.578125 C 236.324219 264.214844 235.796875 263.824219 235.292969 263.410156 C 234.785156 262.996094 234.300781 262.558594 233.839844 262.09375 L 187.65625 215.910156 L 141.472656 262.09375 C 141.007812 262.558594 140.523438 262.996094 140.019531 263.410156 C 139.511719 263.824219 138.988281 264.214844 138.441406 264.578125 C 137.898438 264.941406 137.339844 265.277344 136.761719 265.585938 C 136.183594 265.894531 135.59375 266.171875 134.988281 266.425781 C 134.382812 266.675781 133.769531 266.894531 133.144531 267.085938 C 132.515625 267.273438 131.882812 267.433594 131.242188 267.5625 C 130.597656 267.6875 129.953125 267.785156 129.300781 267.847656 C 128.652344 267.914062 127.996094 267.945312 127.34375 267.945312 C 126.6875 267.945312 126.035156 267.914062 125.386719 267.847656 C 124.734375 267.785156 124.085938 267.6875 123.445312 267.5625 C 122.804688 267.433594 122.171875 267.273438 121.542969 267.085938 C 120.917969 266.894531 120.300781 266.675781 119.699219 266.425781 C 119.09375 266.171875 118.503906 265.894531 117.925781 265.585938 C 117.347656 265.277344 116.789062 264.941406 116.242188 264.578125 C 115.699219 264.214844 115.175781 263.824219 114.667969 263.410156 C 114.164062 262.996094 113.679688 262.558594 113.214844 262.09375 C 112.753906 261.632812 112.316406 261.148438 111.898438 260.640625 C 111.484375 260.136719 111.09375 259.609375 110.730469 259.066406 C 110.367188 258.523438 110.03125 257.960938 109.722656 257.386719 C 109.417969 256.808594 109.136719 256.21875 108.886719 255.613281 C 108.636719 255.007812 108.414062 254.390625 108.226562 253.765625 C 108.035156 253.140625 107.878906 252.507812 107.75 251.863281 C 107.621094 251.222656 107.527344 250.578125 107.460938 249.925781 C 107.398438 249.273438 107.367188 248.621094 107.367188 247.96875 C 107.367188 247.3125 107.398438 246.660156 107.460938 246.007812 C 107.527344 245.359375 107.621094 244.710938 107.75 244.070312 C 107.878906 243.425781 108.035156 242.792969 108.226562 242.167969 C 108.414062 241.542969 108.636719 240.925781 108.886719 240.320312 C 109.136719 239.71875 109.417969 239.125 109.722656 238.550781 C 110.03125 237.972656 110.367188 237.410156 110.730469 236.867188 C 111.09375 236.324219 111.484375 235.796875 111.898438 235.292969 C 112.316406 234.785156 112.753906 234.300781 113.214844 233.839844 L 159.398438 187.65625 L 113.214844 141.472656 C 112.753906 141.007812 112.316406 140.523438 111.898438 140.019531 C 111.484375 139.511719 111.09375 138.988281 110.730469 138.441406 C 110.367188 137.898438 110.03125 137.339844 109.722656 136.761719 C 109.417969 136.183594 109.136719 135.59375 108.886719 134.988281 C 108.636719 134.382812 108.414062 133.769531 108.226562 133.144531 C 108.035156 132.515625 107.878906 131.882812 107.75 131.242188 C 107.621094 130.597656 107.527344 129.953125 107.460938 129.300781 C 107.398438 128.652344 107.367188 127.996094 107.367188 127.34375 C 107.367188 126.6875 107.398438 126.035156 107.460938 125.386719 C 107.527344 124.734375 107.621094 124.085938 107.75 123.445312 C 107.878906 122.804688 108.035156 122.171875 108.226562 121.542969 C 108.414062 120.917969 108.636719 120.300781 108.886719 119.699219 C 109.136719 119.09375 109.417969 118.503906 109.722656 117.925781 C 110.03125 117.347656 110.367188 116.789062 110.730469 116.242188 C 111.09375 115.699219 111.484375 115.175781 111.898438 114.667969 C 112.316406 114.164062 112.753906 113.679688 113.214844 113.214844 C 113.679688 112.753906 114.164062 112.316406 114.667969 111.898438 C 115.175781 111.484375 115.699219 111.09375 116.242188 110.730469 C 116.789062 110.367188 117.347656 110.03125 117.925781 109.722656 C 118.503906 109.417969 119.09375 109.136719 119.699219 108.886719 C 120.300781 108.636719 120.917969 108.414062 121.542969 108.226562 C 122.171875 108.035156 122.804688 107.878906 123.445312 107.75 C 124.085938 107.621094 124.734375 107.527344 125.386719 107.460938 C 126.035156 107.398438 126.6875 107.367188 127.34375 107.367188 C 127.996094 107.367188 128.652344 107.398438 129.300781 107.460938 C 129.953125 107.527344 130.597656 107.621094 131.242188 107.75 C 131.882812 107.878906 132.515625 108.035156 133.144531 108.226562 C 133.769531 108.414062 134.382812 108.636719 134.988281 108.886719 C 135.59375 109.136719 136.183594 109.417969 136.761719 109.722656 C 137.339844 110.03125 137.898438 110.367188 138.441406 110.730469 C 138.988281 111.09375 139.511719 111.484375 140.019531 111.898438 C 140.523438 112.316406 141.007812 112.753906 141.472656 113.214844 L 187.65625 159.398438 L 233.839844 113.214844 C 234.300781 112.753906 234.785156 112.316406 235.292969 111.898438 C 235.796875 111.484375 236.324219 111.09375 236.867188 110.730469 C 237.410156 110.367188 237.972656 110.03125 238.550781 109.722656 C 239.125 109.417969 239.71875 109.136719 240.320312 108.886719 C 240.925781 108.636719 241.542969 108.414062 242.167969 108.226562 C 242.792969 108.035156 243.425781 107.878906 244.070312 107.75 C 244.710938 107.621094 245.359375 107.527344 246.007812 107.460938 C 246.660156 107.398438 247.3125 107.367188 247.96875 107.367188 C 248.621094 107.367188 249.273438 107.398438 249.925781 107.460938 C 250.578125 107.527344 251.222656 107.621094 251.863281 107.75 C 252.507812 107.878906 253.140625 108.035156 253.765625 108.226562 C 254.390625 108.414062 255.007812 108.636719 255.613281 108.886719 C 256.21875 109.136719 256.808594 109.417969 257.386719 109.722656 C 257.960938 110.03125 258.523438 110.367188 259.066406 110.730469 C 259.609375 111.09375 260.136719 111.484375 260.640625 111.898438 C 261.148438 112.316406 261.632812 112.753906 262.09375 113.214844 C 262.558594 113.679688 262.996094 114.164062 263.410156 114.667969 C 263.824219 115.175781 264.214844 115.699219 264.578125 116.242188 C 264.941406 116.789062 265.277344 117.347656 265.585938 117.925781 C 265.894531 118.503906 266.175781 119.09375 266.425781 119.699219 C 266.675781 120.300781 266.894531 120.917969 267.085938 121.542969 C 267.273438 122.171875 267.433594 122.804688 267.5625 123.445312 C 267.6875 124.085938 267.785156 124.734375 267.847656 125.386719 C 267.914062 126.035156 267.945312 126.6875 267.945312 127.34375 C 267.945312 127.996094 267.914062 128.652344 267.847656 129.300781 C 267.785156 129.953125 267.6875 130.597656 267.5625 131.242188 C 267.433594 131.882812 267.273438 132.515625 267.085938 133.144531 C 266.894531 133.769531 266.675781 134.382812 266.425781 134.988281 C 266.171875 135.59375 265.894531 136.183594 265.585938 136.761719 C 265.277344 137.339844 264.941406 137.898438 264.578125 138.441406 C 264.214844 138.988281 263.824219 139.511719 263.410156 140.019531 C 262.996094 140.523438 262.558594 141.007812 262.09375 141.472656 L 215.910156 187.65625 L 262.09375 233.839844 C 262.558594 234.300781 262.996094 234.785156 263.410156 235.292969 C 263.824219 235.796875 264.214844 236.324219 264.578125 236.867188 C 264.941406 237.410156 265.277344 237.972656 265.585938 238.550781 C 265.894531 239.125 266.175781 239.71875 266.425781 240.320312 C 266.675781 240.925781 266.894531 241.542969 267.085938 242.167969 C 267.273438 242.792969 267.433594 243.425781 267.5625 244.070312 C 267.6875 244.710938 267.785156 245.359375 267.847656 246.007812 C 267.914062 246.660156 267.945312 247.3125 267.945312 247.96875 C 267.945312 248.621094 267.914062 249.273438 267.847656 249.925781 C 267.785156 250.578125 267.6875 251.222656 267.5625 251.863281 C 267.433594 252.507812 267.273438 253.140625 267.085938 253.765625 C 266.894531 254.390625 266.675781 255.007812 266.425781 255.613281 C 266.171875 256.21875 265.894531 256.808594 265.585938 257.386719 C 265.277344 257.960938 264.941406 258.523438 264.578125 259.066406 C 264.214844 259.609375 263.824219 260.136719 263.410156 260.640625 C 262.996094 261.148438 262.558594 261.632812 262.09375 262.09375 Z M 262.09375 262.09375 " fill-opacity="1" fill-rule="nonzero"/></svg>