<svg width="30" height="51" viewBox="0 0 45 45" fill="none" xmlns="http://www.w3.org/2000/svg"><g clip-path="url(#clip0_1222_69450)"><path d="M4.57875 13.9424L1.23376 18.613C0.312792 19.8693 -0.116352 21.4193 0.0273518 22.9703C0.171056 24.5213 0.877663 25.9661 2.01376 27.0318L22.5 44.9999L43.1138 26.923C44.2188 25.8252 44.8836 24.3608 44.9827 22.8063C45.0819 21.2518 44.6085 19.7148 43.6519 18.4855L39.825 13.9162C39.2321 13.11 38.4585 12.454 37.5663 12.0008C36.6742 11.5475 35.6882 11.3096 34.6875 11.3062H9.75C8.74159 11.3087 7.74795 11.5487 6.84954 12.0067C5.95113 12.4647 5.1732 13.1278 4.57875 13.9424ZM5.79 21.913L9.135 17.2499C9.20434 17.1512 9.29644 17.0708 9.4035 17.0153C9.51056 16.9598 9.62942 16.9309 9.75 16.9312H17.2275L15 22.4999H30L27.7725 16.9312H34.6875C34.8362 16.9414 34.98 16.9882 35.1062 17.0673C35.2325 17.1465 35.3373 17.2556 35.4113 17.3849L39.2288 21.9374C39.3462 22.1 39.3984 22.3007 39.375 22.4999H30L22.5 37.5112L15 22.4999H5.65875C5.63896 22.3983 5.64039 22.2937 5.66298 22.1927C5.68557 22.0917 5.72882 21.9965 5.79 21.913Z" fill="white"></path><path d="M25.3125 0H19.6875V7.5H25.3125V0Z" fill="white"></path><path d="M33.2529 0.565267L29.5033 6.4585L34.2524 9.48013L38.002 3.5869L33.2529 0.565267Z" fill="white"></path><path d="M11.7489 0.578759L7.00226 3.60059L10.7521 9.49075L15.4987 6.46892L11.7489 0.578759Z" fill="white"></path></g><defs><clipPath id="clip0_1222_69450"><rect width="45" height="45" fill="white"></rect></clipPath></defs></svg>