<svg width="240" height="240" viewBox="0 0 240 240" fill="none" xmlns="http://www.w3.org/2000/svg">
<path d="M121.43 44.5234C105.607 44.5234 90.14 49.2154 76.9841 58.0059C63.8282 66.7964 53.5744 79.2907 47.5194 93.9088C41.4643 108.527 39.8801 124.612 42.9669 140.131C46.0537 155.649 53.673 169.904 64.8612 181.092C76.0494 192.28 90.304 199.899 105.823 202.986C121.341 206.073 137.426 204.489 152.044 198.434C166.662 192.379 179.157 182.125 187.947 168.969C196.738 155.813 201.43 140.346 201.43 124.523C201.406 103.313 192.97 82.979 177.972 67.9812C162.974 52.9835 142.64 44.5473 121.43 44.5234ZM121.43 198.809C106.737 198.809 92.375 194.452 80.1588 186.29C67.9426 178.127 58.4212 166.525 52.7987 152.951C47.1762 139.377 45.7051 124.441 48.5714 110.031C51.4377 95.621 58.5127 82.3846 68.9018 71.9955C79.2908 61.6065 92.5273 54.5314 106.937 51.6651C121.347 48.7988 136.284 50.2699 149.858 55.8924C163.432 61.5149 175.033 71.0363 183.196 83.2525C191.359 95.4687 195.715 109.831 195.715 124.523C195.693 144.218 187.859 163.1 173.933 177.027C160.007 190.953 141.125 198.787 121.43 198.809Z" fill="#F7901E"/>
<circle cx="120.5" cy="127.5" r="77.5" fill="#F7901E"/>
<path d="M164.429 87.4922L97.5505 153.303L78.5073 133.289L78.5033 133.285C77.7966 132.551 76.828 132.126 75.8092 132.104C74.7904 132.082 73.8041 132.463 73.0658 133.166C72.3274 133.868 71.8971 134.834 71.8687 135.853C71.8403 136.871 72.2162 137.86 72.9143 138.602L72.9143 138.602L72.9183 138.607L94.6651 161.463C94.6652 161.464 94.6653 161.464 94.6655 161.464C95.0182 161.835 95.4412 162.132 95.9098 162.338C96.3787 162.544 96.8839 162.654 97.3959 162.663L97.4044 162.663H97.4128H97.4614H97.4621C98.4739 162.662 99.445 162.264 100.166 161.554L169.838 92.9909C170.208 92.641 170.506 92.221 170.714 91.7551L169.801 91.3481L170.714 91.7551C170.923 91.2853 171.037 90.7783 171.047 90.264C171.058 89.7498 170.965 89.2386 170.775 88.7605C170.585 88.2825 170.301 87.8473 169.941 87.4806C169.58 87.1139 169.15 86.823 168.675 86.6251C168.2 86.4272 167.69 86.3262 167.176 86.3282C166.662 86.3301 166.153 86.4349 165.68 86.6364C165.21 86.8363 164.785 87.1271 164.429 87.4922Z" fill="white" stroke="white" stroke-width="2"/>
<path d="M215.317 209.88H151.803C171.91 202.42 188.755 188.129 199.392 169.507C210.029 150.884 213.78 129.114 209.991 108.005C206.201 86.8964 195.112 67.7914 178.661 54.0314C162.211 40.2714 141.447 32.7321 120.001 32.7321C98.5544 32.7321 77.7905 40.2714 61.3403 54.0314C44.89 67.7914 33.8005 86.8964 30.0109 108.005C26.2214 129.114 29.973 150.884 40.6098 169.507C51.2466 188.129 68.0915 202.42 88.1987 209.88H24.6844C24.278 209.827 23.8648 209.861 23.4727 209.98C23.0805 210.1 22.7183 210.301 22.4102 210.572C22.1021 210.842 21.8553 211.175 21.6862 211.549C21.5172 211.922 21.4297 212.327 21.4297 212.737C21.4297 213.147 21.5172 213.552 21.6862 213.926C21.8553 214.299 22.1021 214.632 22.4102 214.903C22.7183 215.173 23.0805 215.375 23.4727 215.494C23.8648 215.613 24.278 215.647 24.6844 215.594H215.317C215.724 215.647 216.137 215.613 216.529 215.494C216.921 215.375 217.283 215.173 217.592 214.903C217.9 214.632 218.146 214.299 218.315 213.926C218.485 213.552 218.572 213.147 218.572 212.737C218.572 212.327 218.485 211.922 218.315 211.549C218.146 211.175 217.9 210.842 217.592 210.572C217.283 210.301 216.921 210.1 216.529 209.98C216.137 209.861 215.724 209.827 215.317 209.88ZM34.2873 124.166C34.2873 107.213 39.3143 90.6411 48.7327 76.5455C58.1512 62.4498 71.5379 51.4636 87.2001 44.9761C102.862 38.4886 120.097 36.7911 136.724 40.0984C153.351 43.4058 168.623 51.5692 180.611 63.5566C192.598 75.544 200.762 90.8168 204.069 107.444C207.376 124.071 205.679 141.305 199.191 156.967C192.704 172.629 181.718 186.016 167.622 195.435C153.526 204.853 136.954 209.88 120.002 209.88C97.2766 209.854 75.4898 200.815 59.4208 184.747C43.3518 168.678 34.313 146.891 34.2873 124.166ZM126.43 25.2372C127.278 25.2372 128.106 24.9858 128.811 24.5149C129.516 24.044 130.065 23.3747 130.39 22.5915C130.714 21.8084 130.799 20.9467 130.633 20.1154C130.468 19.284 130.06 18.5204 129.461 17.921C128.861 17.3216 128.098 16.9135 127.266 16.7481C126.435 16.5827 125.573 16.6676 124.79 16.992C124.007 17.3164 123.338 17.8657 122.867 18.5705C122.396 19.2752 122.144 20.1038 122.144 20.9515C122.146 22.0878 122.597 23.1772 123.401 23.9807C124.204 24.7842 125.294 25.2361 126.43 25.2372ZM126.43 18.8086C126.854 18.8086 127.268 18.9343 127.621 19.1698C127.973 19.4052 128.248 19.7399 128.41 20.1314C128.572 20.523 128.615 20.9539 128.532 21.3695C128.449 21.7852 128.245 22.167 127.945 22.4667C127.646 22.7664 127.264 22.9705 126.848 23.0532C126.433 23.1358 126.002 23.0934 125.61 22.9312C125.219 22.769 124.884 22.4944 124.648 22.142C124.413 21.7896 124.287 21.3753 124.287 20.9515C124.288 20.3833 124.514 19.8384 124.915 19.4367C125.317 19.0349 125.862 18.809 126.43 18.8086ZM226.152 97.0229C225.586 97.0229 225.034 97.1905 224.564 97.5044C224.094 97.8184 223.728 98.2646 223.512 98.7867C223.296 99.3087 223.239 99.8832 223.349 100.437C223.46 100.992 223.732 101.501 224.131 101.9C224.531 102.3 225.04 102.572 225.594 102.682C226.148 102.793 226.723 102.736 227.245 102.52C227.767 102.303 228.213 101.937 228.527 101.467C228.841 100.998 229.009 100.445 229.009 99.88C229.008 99.1225 228.707 98.3962 228.171 97.8606C227.635 97.3249 226.909 97.0237 226.152 97.0229ZM226.152 101.309C225.869 101.309 225.593 101.225 225.358 101.068C225.123 100.911 224.94 100.688 224.832 100.427C224.724 100.166 224.695 99.8785 224.75 99.6013C224.806 99.3242 224.942 99.0697 225.141 98.8699C225.341 98.6701 225.596 98.534 225.873 98.4789C226.15 98.4238 226.437 98.4521 226.698 98.5602C226.959 98.6683 227.182 98.8514 227.339 99.0864C227.496 99.3213 227.58 99.5975 227.58 99.88C227.58 100.259 227.429 100.622 227.161 100.89C226.893 101.158 226.53 101.308 226.152 101.309ZM185.716 5.11719C185.151 5.11719 184.598 5.28476 184.128 5.5987C183.659 5.91265 183.292 6.35888 183.076 6.88095C182.86 7.40302 182.803 7.9775 182.914 8.53173C183.024 9.08596 183.296 9.59506 183.696 9.99464C184.095 10.3942 184.604 10.6663 185.158 10.7766C185.713 10.8868 186.287 10.8302 186.809 10.614C187.331 10.3977 187.778 10.0315 188.091 9.56167C188.405 9.09182 188.573 8.53942 188.573 7.97433C188.572 7.2168 188.271 6.49052 187.735 5.95486C187.2 5.41921 186.473 5.11794 185.716 5.11719ZM185.716 9.4029C185.433 9.4029 185.157 9.31912 184.922 9.16214C184.687 9.00517 184.504 8.78206 184.396 8.52102C184.288 8.25998 184.26 7.97275 184.315 7.69563C184.37 7.41851 184.506 7.16397 184.706 6.96418C184.905 6.76439 185.16 6.62833 185.437 6.57321C185.714 6.51809 186.002 6.54638 186.263 6.6545C186.524 6.76263 186.747 6.94573 186.904 7.18066C187.061 7.41559 187.144 7.69179 187.144 7.97433C187.144 8.3531 186.993 8.71624 186.726 8.98407C186.458 9.25189 186.095 9.40252 185.716 9.4029ZM230.477 21.7843C229.912 21.7843 229.36 21.9519 228.89 22.2658C228.42 22.5798 228.054 23.026 227.838 23.5481C227.621 24.0702 227.565 24.6446 227.675 25.1989C227.785 25.7531 228.057 26.2622 228.457 26.6618C228.857 27.0614 229.366 27.3335 229.92 27.4437C230.474 27.554 231.049 27.4974 231.571 27.2811C232.093 27.0649 232.539 26.6987 232.853 26.2288C233.167 25.759 233.334 25.2066 233.334 24.6415C233.334 23.8839 233.032 23.1577 232.497 22.622C231.961 22.0863 231.235 21.7851 230.477 21.7843ZM230.477 26.07C230.195 26.07 229.919 25.9863 229.684 25.8293C229.449 25.6723 229.266 25.4492 229.157 25.1882C229.049 24.9271 229.021 24.6399 229.076 24.3628C229.131 24.0857 229.267 23.8311 229.467 23.6313C229.667 23.4315 229.921 23.2955 230.199 23.2404C230.476 23.1852 230.763 23.2135 231.024 23.3216C231.285 23.4298 231.508 23.6129 231.665 23.8478C231.822 24.0827 231.906 24.3589 231.906 24.6415C231.905 25.0202 231.755 25.3834 231.487 25.6512C231.219 25.919 230.856 26.0697 230.477 26.07ZM43.2944 43.6886C43.2944 43.1235 43.1269 42.5711 42.8129 42.1013C42.499 41.6314 42.0527 41.2652 41.5307 41.049C41.0086 40.8327 40.4341 40.7761 39.8799 40.8864C39.3257 40.9966 38.8166 41.2687 38.417 41.6683C38.0174 42.0679 37.7453 42.577 37.635 43.1312C37.5248 43.6854 37.5814 44.2599 37.7976 44.782C38.0139 45.3041 38.3801 45.7503 38.8499 46.0642C39.3198 46.3782 39.8722 46.5458 40.4373 46.5458C41.1948 46.545 41.9211 46.2437 42.4568 45.7081C42.9924 45.1724 43.2937 44.4461 43.2944 43.6886ZM39.0087 43.6886C39.0087 43.4061 39.0925 43.1299 39.2495 42.8949C39.4064 42.66 39.6296 42.4769 39.8906 42.3688C40.1516 42.2607 40.4389 42.2324 40.716 42.2875C40.9931 42.3426 41.2477 42.4787 41.4474 42.6785C41.6472 42.8783 41.7833 43.1328 41.8384 43.4099C41.8935 43.687 41.8652 43.9743 41.7571 44.2353C41.649 44.4963 41.4659 44.7195 41.231 44.8764C40.996 45.0334 40.7198 45.1172 40.4373 45.1172C40.0585 45.1168 39.6954 44.9662 39.4276 44.6984C39.1597 44.4305 39.0091 44.0674 39.0087 43.6886Z" fill="#0FA588"/>
<path d="M15.5536 97.0334L17.6779 94.2391L16.3365 93.4791L14.9722 96.6077H14.9279L13.5422 93.502L12.1779 94.2834L14.2793 97.012V97.0563L10.9922 96.6305V98.1505L14.3008 97.7263V97.7705L12.1779 100.498L13.4508 101.303L14.905 98.1505H14.9493L16.2908 101.281L17.6993 100.476L15.5536 97.7934V97.7477L18.9279 98.1505V96.6305L15.5536 97.0777V97.0334ZM17.3736 8.90911L16.1508 10.4791L16.8836 10.9434L17.7208 9.12768H17.7465L18.5193 10.9305L19.3308 10.4663L18.095 8.92196V8.89625L20.0379 9.12768V8.25196L18.095 8.51054V8.48482L19.3179 6.87482L18.545 6.43768L17.7608 8.23911H17.7336L16.9365 6.45054L16.1508 6.90054L17.3608 8.47196V8.49768L15.4679 8.25196V9.12768L17.3736 8.88339V8.90911ZM93.2922 8.98911V7.49768L89.9822 7.93625V7.89196L92.065 5.15196L90.7493 4.40625L89.4122 7.47625H89.3679L88.0093 4.42768L86.6708 5.19625L88.7322 7.87054V7.91482L85.5079 7.49768V8.98911L88.7536 8.57196V8.61625L86.6708 11.2905L87.9208 12.0805L89.3465 8.98911H89.3893L90.705 12.0577L92.0865 11.2691L89.9822 8.63768V8.59339L93.2922 8.98911ZM198.368 51.1963L200.165 48.832L199.029 48.1891L197.876 50.8363H197.838L196.666 48.2077L195.511 48.8691L197.289 51.1777V51.2148L194.509 50.8548V52.1405L197.308 51.782V51.8205L195.511 54.1263L196.589 54.8077L197.819 52.1405H197.856L198.991 54.7891L200.184 54.1077L198.368 51.8391V51.8005L201.222 52.1405V50.8548L198.368 51.2334V51.1963Z" fill="#F7901E"/>
<path d="M2.85714 215.589C4.4351 215.589 5.71429 214.31 5.71429 212.732C5.71429 211.154 4.4351 209.875 2.85714 209.875C1.27919 209.875 0 211.154 0 212.732C0 214.31 1.27919 215.589 2.85714 215.589Z" fill="#0FA588"/>
<path d="M15.7132 209.875H11.4275C10.6697 209.875 9.94297 210.176 9.40715 210.712C8.87133 211.248 8.57031 211.974 8.57031 212.732C8.57031 213.49 8.87133 214.217 9.40715 214.752C9.94297 215.288 10.6697 215.589 11.4275 215.589H15.7132C16.4709 215.589 17.1977 215.288 17.7335 214.752C18.2693 214.217 18.5703 213.49 18.5703 212.732C18.5703 211.974 18.2693 211.248 17.7335 210.712C17.1977 210.176 16.4709 209.875 15.7132 209.875ZM228.57 209.875H224.285C223.527 209.875 222.8 210.176 222.264 210.712C221.728 211.248 221.427 211.974 221.427 212.732C221.427 213.49 221.728 214.217 222.264 214.752C222.8 215.288 223.527 215.589 224.285 215.589H228.57C229.328 215.589 230.055 215.288 230.591 214.752C231.126 214.217 231.427 213.49 231.427 212.732C231.427 211.974 231.126 211.248 230.591 210.712C230.055 210.176 229.328 209.875 228.57 209.875Z" fill="#0FA588"/>
<path d="M237.146 215.589C238.724 215.589 240.003 214.31 240.003 212.732C240.003 211.154 238.724 209.875 237.146 209.875C235.568 209.875 234.289 211.154 234.289 212.732C234.289 214.31 235.568 215.589 237.146 215.589Z" fill="#0FA588"/>
<path d="M168.79 221.305H156.921C156.201 221.36 155.529 221.686 155.039 222.215C154.549 222.745 154.277 223.44 154.277 224.162C154.277 224.884 154.549 225.579 155.039 226.108C155.529 226.638 156.201 226.963 156.921 227.019H168.79C169.509 226.963 170.181 226.638 170.671 226.108C171.162 225.579 171.434 224.884 171.434 224.162C171.434 223.44 171.162 222.745 170.671 222.215C170.181 221.686 169.509 221.36 168.79 221.305ZM83.0753 221.305H71.2067C70.4872 221.36 69.8152 221.686 69.325 222.215C68.8348 222.745 68.5625 223.44 68.5625 224.162C68.5625 224.884 68.8348 225.579 69.325 226.108C69.8152 226.638 70.4872 226.963 71.2067 227.019H83.0753C83.7948 226.963 84.4668 226.638 84.957 226.108C85.4472 225.579 85.7195 224.884 85.7195 224.162C85.7195 223.44 85.4472 222.745 84.957 222.215C84.4668 221.686 83.7948 221.36 83.0753 221.305ZM148.57 221.305H91.4267C90.669 221.305 89.9422 221.606 89.4064 222.142C88.8706 222.677 88.5696 223.404 88.5696 224.162C88.5696 224.92 88.8706 225.646 89.4064 226.182C89.9422 226.718 90.669 227.019 91.4267 227.019H114.198V229.876H102.855C102.098 229.876 101.371 230.177 100.835 230.713C100.299 231.249 99.9982 231.975 99.9982 232.733C99.9982 233.491 100.299 234.218 100.835 234.754C101.371 235.289 102.098 235.59 102.855 235.59H138.57C139.327 235.59 140.054 235.289 140.59 234.754C141.126 234.218 141.427 233.491 141.427 232.733C141.427 231.975 141.126 231.249 140.59 230.713C140.054 230.177 139.327 229.876 138.57 229.876H125.798V227.019H148.57C149.327 227.019 150.054 226.718 150.59 226.182C151.126 225.646 151.427 224.92 151.427 224.162C151.427 223.404 151.126 222.677 150.59 222.142C150.054 221.606 149.327 221.305 148.57 221.305Z" fill="#F7901E"/>
</svg>
