<svg width="30" height="51" viewBox="0 0 42 51" fill="none" xmlns="http://www.w3.org/2000/svg"><path d="M13.1267 6.5H7.625V12.0017H13.1267V6.5Z" fill="white"></path><path d="M13.1267 20.2578H7.625V25.7595H13.1267V20.2578Z" fill="white"></path><path d="M38.7618 1.13451e-05H3.50087C3.13933 -0.00102844 2.78115 0.069415 2.44693 0.20729C2.11271 0.345165 1.80905 0.547752 1.5534 0.803399C1.29775 1.05905 1.09517 1.36271 0.95729 1.69693C0.819415 2.03115 0.748972 2.38933 0.750011 2.75087V47.5148C0.748972 47.8763 0.819415 48.2345 0.95729 48.5687C1.09517 48.9029 1.29775 49.2066 1.5534 49.4622C1.80905 49.7179 2.11271 49.9205 2.44693 50.0584C2.78115 50.1962 3.13933 50.2667 3.50087 50.2656H38.7618C39.1234 50.2667 39.4815 50.1962 39.8158 50.0584C40.15 49.9205 40.4536 49.7179 40.7093 49.4622C40.9649 49.2066 41.1675 48.9029 41.3054 48.5687C41.4433 48.2345 41.5137 47.8763 41.5127 47.5148V2.75087C41.5137 2.38933 41.4433 2.03115 41.3054 1.69693C41.1675 1.36271 40.9649 1.05905 40.7093 0.803399C40.4536 0.547752 40.15 0.345165 39.8158 0.20729C39.4815 0.069415 39.1234 -0.00102844 38.7618 1.13451e-05ZM18.3805 5.7518H28.1335C28.3988 5.7518 28.6533 5.85719 28.8409 6.04478C29.0284 6.23238 29.1338 6.48681 29.1338 6.75211C29.1338 7.01741 29.0284 7.27184 28.8409 7.45944C28.6533 7.64703 28.3988 7.75242 28.1335 7.75242H18.3805C18.1152 7.75242 17.8608 7.64703 17.6732 7.45944C17.4856 7.27184 17.3802 7.01741 17.3802 6.75211C17.3802 6.48681 17.4856 6.23238 17.6732 6.04478C17.8608 5.85719 18.1152 5.7518 18.3805 5.7518ZM5.62653 5.50172C5.62732 5.23667 5.73296 4.98269 5.92039 4.79527C6.10781 4.60785 6.36178 4.5022 6.62684 4.50141H14.1292C14.3942 4.5022 14.6482 4.60785 14.8356 4.79527C15.023 4.98269 15.1287 5.23667 15.1295 5.50172V13.0041C15.1287 13.2691 15.023 13.5231 14.8356 13.7105C14.6482 13.8979 14.3942 14.0036 14.1292 14.0044H6.62684C6.36178 14.0036 6.10781 13.8979 5.92039 13.7105C5.73296 13.5231 5.62732 13.2691 5.62653 13.0041V5.50172ZM5.62653 19.256C5.62732 18.9909 5.73296 18.737 5.92039 18.5495C6.10781 18.3621 6.36178 18.2565 6.62684 18.2557H14.1292C14.3942 18.2565 14.6482 18.3621 14.8356 18.5495C15.023 18.737 15.1287 18.9909 15.1295 19.256V26.7583C15.1287 27.0234 15.023 27.2774 14.8356 27.4648C14.6482 27.6522 14.3942 27.7579 14.1292 27.7586H6.62684C6.36178 27.7579 6.10781 27.6522 5.92039 27.4648C5.73296 27.2774 5.62732 27.0234 5.62653 26.7583V19.256ZM5.87661 33.2604H20.6312C20.8965 33.2604 21.1509 33.3657 21.3385 33.5533C21.5261 33.7409 21.6315 33.9954 21.6315 34.2607C21.6315 34.526 21.5261 34.7804 21.3385 34.968C21.1509 35.1556 20.8965 35.261 20.6312 35.261H5.87661C5.61131 35.261 5.35687 35.1556 5.16928 34.968C4.98168 34.7804 4.87629 34.526 4.87629 34.2607C4.87629 33.9954 4.98168 33.7409 5.16928 33.5533C5.35687 33.3657 5.61131 33.2604 5.87661 33.2604ZM35.6359 45.2641H5.87661C5.61131 45.2641 5.35687 45.1587 5.16928 44.9711C4.98168 44.7835 4.87629 44.5291 4.87629 44.2638C4.87629 43.9985 4.98168 43.744 5.16928 43.5564C5.35687 43.3689 5.61131 43.2635 5.87661 43.2635H35.6359C35.9012 43.2635 36.1556 43.3689 36.3432 43.5564C36.5308 43.744 36.6362 43.9985 36.6362 44.2638C36.6362 44.5291 36.5308 44.7835 36.3432 44.9711C36.1556 45.1587 35.9012 45.2641 35.6359 45.2641ZM35.6359 40.2625H5.87661C5.61131 40.2625 5.35687 40.1571 5.16928 39.9695C4.98168 39.782 4.87629 39.5275 4.87629 39.2622C4.87629 38.9969 4.98168 38.7425 5.16928 38.5549C5.35687 38.3673 5.61131 38.2619 5.87661 38.2619H35.6359C35.9012 38.2619 36.1556 38.3673 36.3432 38.5549C36.5308 38.7425 36.6362 38.9969 36.6362 39.2622C36.6362 39.5275 36.5308 39.782 36.3432 39.9695C36.1556 40.1571 35.9012 40.2625 35.6359 40.2625ZM35.6359 26.5083H18.3805C18.1152 26.5083 17.8608 26.4029 17.6732 26.2153C17.4856 26.0277 17.3802 25.7732 17.3802 25.5079C17.3802 25.2426 17.4856 24.9882 17.6732 24.8006C17.8608 24.613 18.1152 24.5076 18.3805 24.5076H35.6359C35.9012 24.5076 36.1556 24.613 36.3432 24.8006C36.5308 24.9882 36.6362 25.2426 36.6362 25.5079C36.6362 25.7732 36.5308 26.0277 36.3432 26.2153C36.1556 26.4029 35.9012 26.5083 35.6359 26.5083ZM17.3802 20.5064C17.381 20.2413 17.4866 19.9874 17.674 19.7999C17.8615 19.6125 18.1154 19.5069 18.3805 19.5061H28.1335C28.3988 19.5061 28.6533 19.6115 28.8409 19.7991C29.0284 19.9867 29.1338 20.2411 29.1338 20.5064C29.1338 20.7717 29.0284 21.0261 28.8409 21.2137C28.6533 21.4013 28.3988 21.5067 28.1335 21.5067H18.3805C18.1154 21.5059 17.8615 21.4003 17.674 21.2128C17.4866 21.0254 17.381 20.7714 17.3802 20.5064ZM35.6359 12.754H18.3805C18.1152 12.754 17.8608 12.6486 17.6732 12.461C17.4856 12.2734 17.3802 12.019 17.3802 11.7537C17.3802 11.4884 17.4856 11.2339 17.6732 11.0463C17.8608 10.8587 18.1152 10.7534 18.3805 10.7534H35.6359C35.9012 10.7534 36.1556 10.8587 36.3432 11.0463C36.5308 11.2339 36.6362 11.4884 36.6362 11.7537C36.6362 12.019 36.5308 12.2734 36.3432 12.461C36.1556 12.6486 35.9012 12.754 35.6359 12.754Z" fill="white"></path></svg>