<svg width="81" height="81" viewBox="0 0 81 81" fill="none" xmlns="http://www.w3.org/2000/svg">
<g id="BookOpenText">
<path id="Vector" d="M70.666 15.5H50.666C48.7255 15.5 46.8115 15.9518 45.0758 16.8197C43.3402 17.6875 41.8304 18.9475 40.666 20.5C39.5017 18.9475 37.9919 17.6875 36.2562 16.8197C34.5205 15.9518 32.6066 15.5 30.666 15.5H10.666C9.33993 15.5 8.06816 16.0268 7.13048 16.9645C6.1928 17.9021 5.66602 19.1739 5.66602 20.5V60.5C5.66602 61.8261 6.1928 63.0979 7.13048 64.0355C8.06816 64.9732 9.33993 65.5 10.666 65.5H30.666C32.6551 65.5 34.5628 66.2902 35.9693 67.6967C37.3758 69.1032 38.166 71.0109 38.166 73C38.166 73.663 38.4294 74.2989 38.8983 74.7678C39.3671 75.2366 40.003 75.5 40.666 75.5C41.3291 75.5 41.9649 75.2366 42.4338 74.7678C42.9026 74.2989 43.166 73.663 43.166 73C43.166 71.0109 43.9562 69.1032 45.3627 67.6967C46.7692 66.2902 48.6769 65.5 50.666 65.5H70.666C71.9921 65.5 73.2639 64.9732 74.2015 64.0355C75.1392 63.0979 75.666 61.8261 75.666 60.5V20.5C75.666 19.1739 75.1392 17.9021 74.2015 16.9645C73.2639 16.0268 71.9921 15.5 70.666 15.5ZM30.666 60.5H10.666V20.5H30.666C32.6551 20.5 34.5628 21.2902 35.9693 22.6967C37.3758 24.1032 38.166 26.0109 38.166 28V63C36.0043 61.3734 33.3713 60.4957 30.666 60.5ZM70.666 60.5H50.666C47.9607 60.4957 45.3277 61.3734 43.166 63V28C43.166 26.0109 43.9562 24.1032 45.3627 22.6967C46.7692 21.2902 48.6769 20.5 50.666 20.5H70.666V60.5ZM50.666 28H63.166C63.8291 28 64.4649 28.2634 64.9338 28.7322C65.4026 29.2011 65.666 29.837 65.666 30.5C65.666 31.163 65.4026 31.7989 64.9338 32.2678C64.4649 32.7366 63.8291 33 63.166 33H50.666C50.003 33 49.3671 32.7366 48.8982 32.2678C48.4294 31.7989 48.166 31.163 48.166 30.5C48.166 29.837 48.4294 29.2011 48.8982 28.7322C49.3671 28.2634 50.003 28 50.666 28ZM65.666 40.5C65.666 41.163 65.4026 41.7989 64.9338 42.2678C64.4649 42.7366 63.8291 43 63.166 43H50.666C50.003 43 49.3671 42.7366 48.8982 42.2678C48.4294 41.7989 48.166 41.163 48.166 40.5C48.166 39.837 48.4294 39.2011 48.8982 38.7322C49.3671 38.2634 50.003 38 50.666 38H63.166C63.8291 38 64.4649 38.2634 64.9338 38.7322C65.4026 39.2011 65.666 39.837 65.666 40.5ZM65.666 50.5C65.666 51.163 65.4026 51.7989 64.9338 52.2678C64.4649 52.7366 63.8291 53 63.166 53H50.666C50.003 53 49.3671 52.7366 48.8982 52.2678C48.4294 51.7989 48.166 51.163 48.166 50.5C48.166 49.837 48.4294 49.2011 48.8982 48.7322C49.3671 48.2634 50.003 48 50.666 48H63.166C63.8291 48 64.4649 48.2634 64.9338 48.7322C65.4026 49.2011 65.666 49.837 65.666 50.5Z" fill="#0FA588"/>
</g>
</svg>
