<svg width="81" height="81" viewBox="0 0 81 81" fill="none" xmlns="http://www.w3.org/2000/svg">
<g id="TelegramLogo">
<path id="Vector" d="M74.3571 8.6838C73.9697 8.34933 73.4985 8.12688 72.9941 8.04042C72.4897 7.95397 71.9712 8.00678 71.4946 8.19318L8.16334 32.9776C7.26579 33.3266 6.50591 33.9577 5.9981 34.776C5.49029 35.5942 5.26204 36.5553 5.3477 37.5145C5.43336 38.4737 5.8283 39.3791 6.47307 40.0944C7.11783 40.8097 7.97752 41.2962 8.92271 41.4807L25.3321 44.7025V62.9994C25.3289 63.996 25.625 64.9707 26.1822 65.797C26.7394 66.6233 27.5319 67.2632 28.4571 67.6338C29.3808 68.011 30.3967 68.1015 31.3725 67.8937C32.3484 67.6858 33.2392 67.1891 33.929 66.4682L41.8415 58.2619L54.3946 69.2494C55.3003 70.0528 56.4683 70.4973 57.679 70.4994C58.2095 70.499 58.7367 70.4157 59.2415 70.2526C60.0663 69.9908 60.8082 69.5176 61.3932 68.8799C61.9782 68.2423 62.386 67.4625 62.5758 66.6182L75.2602 11.4369C75.3737 10.9393 75.3496 10.4201 75.1905 9.93511C75.0314 9.45012 74.7433 9.01756 74.3571 8.6838ZM55.2508 19.9338L27.254 39.9838L11.754 36.9432L55.2508 19.9338ZM30.3321 62.9994V48.1619L38.079 54.9557L30.3321 62.9994ZM57.6852 65.4994L31.8477 42.8432L69.0352 16.1901L57.6852 65.4994Z" fill="#0094A8"/>
</g>
</svg>
