<svg width="80" height="81" viewBox="0 0 80 81" fill="none" xmlns="http://www.w3.org/2000/svg">
<g id="MonitorPlay">
<path id="Vector" d="M65 13H15C13.0109 13 11.1032 13.7902 9.6967 15.1967C8.29018 16.6032 7.5 18.5109 7.5 20.5V55.5C7.5 57.4891 8.29018 59.3968 9.6967 60.8033C11.1032 62.2098 13.0109 63 15 63H65C66.9891 63 68.8968 62.2098 70.3033 60.8033C71.7098 59.3968 72.5 57.4891 72.5 55.5V20.5C72.5 18.5109 71.7098 16.6032 70.3033 15.1967C68.8968 13.7902 66.9891 13 65 13ZM67.5 55.5C67.5 56.163 67.2366 56.7989 66.7678 57.2678C66.2989 57.7366 65.663 58 65 58H15C14.337 58 13.7011 57.7366 13.2322 57.2678C12.7634 56.7989 12.5 56.163 12.5 55.5V20.5C12.5 19.837 12.7634 19.2011 13.2322 18.7322C13.7011 18.2634 14.337 18 15 18H65C65.663 18 66.2989 18.2634 66.7678 18.7322C67.2366 19.2011 67.5 19.837 67.5 20.5V55.5ZM52.5 70.5C52.5 71.163 52.2366 71.7989 51.7678 72.2678C51.2989 72.7366 50.663 73 50 73H30C29.337 73 28.7011 72.7366 28.2322 72.2678C27.7634 71.7989 27.5 71.163 27.5 70.5C27.5 69.837 27.7634 69.2011 28.2322 68.7322C28.7011 68.2634 29.337 68 30 68H50C50.663 68 51.2989 68.2634 51.7678 68.7322C52.2366 69.2011 52.5 69.837 52.5 70.5ZM51.3875 35.9187L36.3875 25.9187C36.0109 25.6675 35.5732 25.5232 35.121 25.5013C34.6688 25.4794 34.2192 25.5807 33.82 25.7944C33.4209 26.008 33.0873 26.3261 32.8548 26.7145C32.6223 27.103 32.4997 27.5473 32.5 28V48C32.4997 48.4527 32.6223 48.897 32.8548 49.2855C33.0873 49.6739 33.4209 49.992 33.82 50.2056C34.2192 50.4193 34.6688 50.5206 35.121 50.4987C35.5732 50.4768 36.0109 50.3325 36.3875 50.0813L51.3875 40.0813C51.7304 39.853 52.0116 39.5436 52.2061 39.1805C52.4007 38.8174 52.5024 38.4119 52.5024 38C52.5024 37.5881 52.4007 37.1826 52.2061 36.8195C52.0116 36.4564 51.7304 36.147 51.3875 35.9187ZM37.5 43.3281V32.6875L45.4938 38L37.5 43.3281Z" fill="#C0092D"/>
</g>
</svg>
