<svg width="64" height="64" viewBox="0 0 64 64" fill="none" xmlns="http://www.w3.org/2000/svg">
<g clip-path="url(#clip0_90_43003)">
<path fill-rule="evenodd" clip-rule="evenodd" d="M34.6693 24.0026V18.6693H29.3359V24.0026H34.6693ZM34.6693 45.3359V29.3359H29.3359V45.3359H34.6693ZM5.33594 32.0026C5.33594 17.2826 17.2826 5.33594 32.0026 5.33594C46.7226 5.33594 58.6693 17.2826 58.6693 32.0026C58.6693 46.7226 46.7226 58.6693 32.0026 58.6693C17.2826 58.6693 5.33594 46.7226 5.33594 32.0026ZM10.6693 32.0026C10.6693 43.7626 20.2426 53.3359 32.0026 53.3359C43.7626 53.3359 53.3359 43.7626 53.3359 32.0026C53.3359 20.2426 43.7626 10.6693 32.0026 10.6693C20.2426 10.6693 10.6693 20.2426 10.6693 32.0026ZM32.0026 50.0026C41.9437 50.0026 50.0026 41.9437 50.0026 32.0026C50.0026 22.0614 41.9437 14.0026 32.0026 14.0026C22.0615 14.0026 14.0026 22.0614 14.0026 32.0026C14.0026 41.9437 22.0615 50.0026 32.0026 50.0026Z" fill="#F7901E"/>
<path d="M32.0026 5.33594C17.2826 5.33594 5.33594 17.2826 5.33594 32.0026C5.33594 46.7226 17.2826 58.6693 32.0026 58.6693C46.7226 58.6693 58.6693 46.7226 58.6693 32.0026C58.6693 17.2826 46.7226 5.33594 32.0026 5.33594ZM32.0026 53.3359C20.2426 53.3359 10.6693 43.7626 10.6693 32.0026C10.6693 20.2426 20.2426 10.6693 32.0026 10.6693C43.7626 10.6693 53.3359 20.2426 53.3359 32.0026C53.3359 43.7626 43.7626 53.3359 32.0026 53.3359Z" fill="#0FA588"/>
</g>
<defs>
<clipPath id="clip0_90_43003">
<rect width="64" height="64" fill="white"/>
</clipPath>
</defs>
</svg>
